#!OML:ASF H:\Terrain\Patient Classification 1\Walking\steve\steve.ASF
:FULLY-SPECIFIED
:DEGREES
323
root 8.34519 16.6651 31.0072 5.87624 3.04239 2.72859
lowerback -3.29905 0.646324 -5.00843
upperback -1.01773 1.02473 -0.00205228
thorax 0.71472 0.513828 2.84525
lowerneck -11.0457 -1.91342 -3.64947
upperneck 13.3678 -2.59664 4.15589
head 5.96405 -1.12805 1.69595
rclavicle -6.9761e-015 8.44835e-015
rhumerus -68.1571 -33.7019 -49.7932
rradius 14.1791
rwrist 25.8257
rhand -17.1134 -40.4015
rfingers 7.12502
rthumb 9.12593 -70.1841
lclavicle -6.9761e-015 8.44835e-015
lhumerus -15.1221 -14.6747 89.1283
lradius 45.5686
lwrist 23.9854
lhand -25.5452 -16.1239
lfingers 7.12502
lthumb 0.985051 13.8536
rfemur -40.9604 -1.7503 20.1819
rtibia 24.4866
rfoot -17.5346 3.01539
rtoes -8.75034
lfemur 9.00565 2.88528 -26.4333
ltibia 8.76188
lfoot -8.7349 -14.0847
ltoes 11.0221
324
root 8.33292 16.6481 31.2345 6.11397 3.33294 2.34988
lowerback -2.16696 0.766712 -4.47169
upperback -2.11619 1.0811 -0.119135
thorax -1.04117 0.598344 2.39577
lowerneck -9.85865 -1.77215 -3.22378
upperneck 13.3996 -2.5238 4.25673
head 5.76346 -1.07722 1.67135
rclavicle -1.07662e-014 2.48481e-015
rhumerus -71.5819 -32.9943 -47.6129
rradius 14.1468
rwrist 26.2602
rhand -16.6563 -40.4341
rfingers 7.12502
rthumb 9.56701 -70.1969
lclavicle -1.07662e-014 2.48481e-015
lhumerus -15.9812 -15.6813 89.1154
lradius 46.703
lwrist 24.2704
lhand -25.4977 -16.7514
lfingers 7.12502
lthumb 1.03089 13.2259
rfemur -41.5701 -2.0012 20.9555
rtibia 23.0353
rfoot -17.8756 3.70835
rtoes -13.5705
lfemur 10.648 2.50909 -25.8795
ltibia 6.61742
lfoot -7.96383 -13.5901
ltoes 10.4148
325
root 8.32956 16.6347 31.4626 6.28008 3.75321 2.58533
lowerback -2.64503 0.582094 -4.95295
upperback -1.80817 0.877968 -0.000288135
thorax -0.451842 0.483924 2.7951
lowerneck -10.4084 -1.98246 -3.58434
upperneck 13.2269 -2.76678 4.49303
head 5.82133 -1.19042 1.78161
rclavicle 4.01452e-015 -5.46658e-015
rhumerus -72.6739 -33.4369 -45.7568
rradius 13.7507
rwrist 27.4913
rhand -16.358 -40.5998
rfingers 7.12502
rthumb 9.85479 -70.3491
lclavicle 4.01452e-015 -5.46658e-015
lhumerus -14.5628 -15.7062 88.843
lradius 47.5074
lwrist 24.2497
lhand -25.4958 -16.9774
lfingers 7.12502
lthumb 1.03273 12.9999
rfemur -42.0324 -2.97872 21.3031
rtibia 21.8198
rfoot -17.1846 5.74276
rtoes -1.59125
lfemur 12.3713 1.96836 -26.0373
ltibia 4.62536
lfoot -7.50814 -12.9157
ltoes 7.60419
326
root 8.33218 16.6165 31.6909 6.53002 4.30178 2.68119
lowerback -2.8245 0.481279 -4.97827
upperback -1.83711 0.753838 0.0577727
thorax -0.371853 0.421071 2.86865
lowerneck -10.668 -2.13923 -3.77264
upperneck 13.3163 -2.94532 4.50278
head 5.90443 -1.28204 1.79905
rclavicle 4.84538e-015 2.38542e-015
rhumerus -73.6886 -33.2012 -45.0085
rradius 13.8207
rwrist 27.2551
rhand -15.8441 -41.1047
rfingers 7.12502
rthumb 10.3506 -70.8299
lclavicle 4.84538e-015 2.38542e-015
lhumerus -13.7543 -15.9803 88.83
lradius 48.3784
lwrist 24.0439
lhand -25.768 -16.3695
lfingers 7.12502
lthumb 0.769778 13.6088
rfemur -42.5761 -4.15195 21.8746
rtibia 21.0831
rfoot -15.2309 8.94927
rtoes 23.9282
lfemur 15.3305 1.31595 -26.1286
ltibia 2.54444e-014
lfoot -5.48472 -11.7352
ltoes 4.11175
327
root 8.33086 16.587 31.9074 6.75676 4.66652 2.42321
lowerback -4.11667 0.267108 -4.94707
upperback -0.979224 0.559589 0.415745
thorax 1.24843 0.267526 3.23334
lowerneck -11.4291 -2.20809 -4.19084
upperneck 12.6506 -2.91669 4.48285
head 5.82987 -1.28378 1.85681
rclavicle -1.29086e-014 1.5704e-014
rhumerus -73.4678 -34.0895 -44.0976
rradius 13.7013
rwrist 28.0752
rhand -15.3483 -41.6562
rfingers 7.12502
rthumb 10.8288 -71.357
lclavicle -1.29086e-014 1.5704e-014
lhumerus -11.5264 -15.4821 88.5252
lradius 49.0796
lwrist 23.824
lhand -26.0454 -15.7087
lfingers 7.12502
lthumb 0.501931 14.2704
rfemur -43.1525 -4.00065 22.2023
rtibia 20.9803
rfoot -15.2687 9.16514
rtoes 22.7871
lfemur 15.8312 0.868386 -25.7526
ltibia 3.18055e-014
lfoot -5.014 -11.686
ltoes 3.62206
328
root 8.33867 16.5532 32.1193 6.75985 4.94748 2.45527
lowerback -3.46536 0.161704 -4.80557
upperback -1.30829 0.370687 0.406408
thorax 0.563475 0.196724 3.12878
lowerneck -11.1128 -2.0717 -4.04577
upperneck 12.5235 -2.74795 4.37483
head 5.72488 -1.20726 1.81515
rclavicle -8.68441e-015 -8.74653e-015
rhumerus -74.2749 -33.2376 -44.0845
rradius 13.7876
rwrist 27.4445
rhand -15.2355 -41.8819
rfingers 7.12502
rthumb 10.9376 -71.577
lclavicle -8.68441e-015 -8.74653e-015
lhumerus -11.6108 -14.9403 88.4651
lradius 50.1183
lwrist 23.3701
lhand -26.0267 -15.1582
lfingers 7.12502
lthumb 0.519979 14.8209
rfemur -43.4368 -3.62389 21.9983
rtibia 21.3686
rfoot -18.3546 4.71969
rtoes -24.0065
lfemur 16.6025 0.502037 -25.7052
ltibia 5.40694e-014
lfoot -4.20106 -11.8666
ltoes 6.53132
329
root 8.34894 16.5044 32.3414 6.56053 5.05119 2.94391
lowerback -2.26621 0.121932 -5.04419
upperback -1.85966 0.2438 0.247513
thorax -0.665223 0.175419 3.08724
lowerneck -10.6315 -2.25201 -4.58769
upperneck 12.7645 -3.0067 4.91572
head 5.74609 -1.32479 2.05752
rclavicle 3.49116e-015 2.38542e-015
rhumerus -75.1391 -31.8608 -44.4092
rradius 13.8856
rwrist 26.4508
rhand -14.9774 -41.8492
rfingers 7.12502
rthumb 11.1865 -71.531
lclavicle 3.49116e-015 2.38542e-015
lhumerus -12.4011 -14.3695 88.5522
lradius 51.2803
lwrist 22.7799
lhand -26.2024 -15.7926
lfingers 7.12502
lthumb 0.350305 14.1869
rfemur -43.4475 -3.02759 21.1532
rtibia 22.2064
rfoot -17.7994 4.40806
rtoes -21.5404
lfemur 17.6885 0.288699 -26.1597
ltibia 3.18055e-015
lfoot -3.20268 -12.1561
ltoes 11.0454
